<svg height="200" viewBox="0 0 1024 1024" width="200" xmlns="http://www.w3.org/2000/svg">
    <path d="M858.6 409.53c-68.44-68.39-175.17-80.3-257-29.95-3.49-6-7-12-11-17.86l15.18-15.16a49.3 49.3 0 0 0 0-69.61c-18.52-18.55-51.09-18.52-69.61 0l-15.19 15.19C415 219.5 273.65 232.18 182.34 323.5 90.26 415.6 77.94 559.49 152.7 665a26.52 26.52 0 0 0 22.43 12.85 25.47 25.47 0 0 0 18.38-7.83c140-140 140-140 140-143.37a8.38 8.38 0 0 0-0.39-2.5 39.55 39.55 0 1 1 26 25.55 8.05 8.05 0 0 0-8.71 1.76l-135.53 135.7a24.51 24.51 0 0 0-10 22.63A26.6 26.6 0 0 0 215 728.12a265.16 265.16 0 0 0 343.83-27.48c1.41 1.49 2.73 3 4.19 4.49a208.09 208.09 0 0 0 270.25 21.63 22.38 22.38 0 0 0 8.38-15.37c0.69-7.79-2.43-14.79-7.58-18.36L727.9 586.88a7.6 7.6 0 0 0-1.14-0.76 8 8 0 0 0-1.18-0.78 17.17 17.17 0 0 0-3-0.74 8 8 0 0 0-1.92 0.22 7.71 7.71 0 0 0-0.95 0.11 29 29 0 0 1-29.45-48.09c10.94-10.94 30.06-11 41 0a28.88 28.88 0 0 1 7 29.51 8 8 0 0 0 2 8.18l106.97 106.91a21.72 21.72 0 0 0 15.77 6.78c7.64 0 15.1-4.27 18.62-10.31a208.42 208.42 0 0 0-23.02-268.38z m-634 305.75a10.33 10.33 0 0 1-3.8-6.92c-0.31-3.48 0.88-6.31 4.43-9l133.22-133.17a55.65 55.65 0 0 0 51.64-93.63c-21-21-57.7-21-78.68 0a55.38 55.38 0 0 0-14.91 51.76c-20.88 20.9-134.38 134.39-134.5 134.55-4.11 4.32-12.1 3.66-15.81-2.56a249.62 249.62 0 0 1 27.53-321.45C281 247.56 417 236.75 517.1 309.12a8 8 0 0 0 10.39-0.83l20-20c12.46-12.46 34.42-12.46 46.88 0a33.2 33.2 0 0 1 0 46.88l-20 19.95a8 8 0 0 0-0.83 10.39A248.61 248.61 0 0 1 547.79 689c-87.36 87.31-223.38 98.36-323.15 26.28z m643.45-46.1a6 6 0 0 1-9.34 1.05L754.94 566.42a45.45 45.45 0 1 0-35.5 34.72l104.23 104.08a4.92 4.92 0 0 1 1.95 4.76 6.21 6.21 0 0 1-2 3.94c-77 55.66-181.85 47.2-249.22-20.15-1.59-1.59-3-3.27-4.57-4.9a265.47 265.47 0 0 0 46.9-279.63c-2.17-5.19-4.9-10.33-7.48-15.48 75.62-47.07 174.64-36.23 238 27.14 66.68 66.7 75.61 170.89 20.84 248.28z"/>
</svg>