<svg class="icon" viewBox="0 0 1024 1024" version="1.1" xmlns="http://www.w3.org/2000/svg" width="200" height="200">
    <path d="M708 892.7H280.9c-63.8 0-115.6-51.9-115.6-115.6V274.9c0-63.8 51.9-115.6 115.6-115.6h299.6c8.4 0 15.3 6.8 15.3 15.3s-6.8 15.3-15.3 15.3H280.9c-46.9 0-85.1 38.2-85.1 85.1v502.2c0 46.9 38.2 85.1 85.1 85.1H708c46.9 0 85.1-38.2 85.1-85.1V355.5c0-8.4 6.8-15.3 15.3-15.3 8.4 0 15.3 6.8 15.3 15.3v421.6c0 63.7-51.9 115.6-115.7 115.6z"/>
    <path d="M729 662.9H276c-8.4 0-15.3-6.8-15.3-15.3s6.8-15.3 15.3-15.3h453c8.4 0 15.3 6.8 15.3 15.3s-6.8 15.3-15.3 15.3zM493.1 492h-217c-8.4 0-15.3-6.8-15.3-15.3 0-8.4 6.8-15.3 15.3-15.3h217.1c8.4 0 15.3 6.8 15.3 15.3-0.1 8.5-6.9 15.3-15.4 15.3zM632.1 448.4c-3.1 0-6.3-1-9-3-6.8-5-8.2-14.6-3.2-21.4l211.3-286.6c5-6.8 14.5-8.2 21.4-3.2 6.8 5 8.2 14.6 3.2 21.4L644.4 442.2c-3 4.1-7.7 6.2-12.3 6.2z"/>
</svg>