<svg class="icon" viewBox="0 0 1024 1024" version="1.1" xmlns="http://www.w3.org/2000/svg" width="200" height="200">
    <path d="M605.84391111 638.74958223c4.85262222 3.24608 10.44138667 4.87537778 16.03925334 4.87537778s11.19914667-1.63043555 16.03925333-4.87537778c9.87704889-6.58432 242.08497778-162.63054222 327.62538667-319.37991112 21.16494222-32.78165333 32.32995555-70.64348445 32.32995555-109.58961777 0-111.64785778-90.82311111-202.44821333-202.44821333-202.44821333-82.08839111 0-142.87985778 68.10737778-173.53500445 103.6947911-30.66766222-35.58741333-91.44433778-103.69479111-173.52362667-103.6947911-111.64785778 0-202.47096889 90.80035555-202.47096888 202.44821333 0 38.93589333 11.18776889 76.79658667 32.32995555 109.58961777 85.52903111 156.74823111 317.73809778 312.79445333 327.61400889 319.37991112zM448.37091555 65.15939556c57.82755555 0 106.19448889 56.27562667 132.20181334 86.51207111 16.15303111 18.80064 25.05500445 29.17148445 41.32181333 29.17148444s25.16878222-10.37312 41.34456889-29.17148444c25.98229333-30.24782222 74.35264-86.51207111 132.20181334-86.51207111 79.73660445 0 144.61155555 64.88405333 144.61155555 144.62179555 0 28.06442667-8.15559111 55.38247111-23.56224 78.9458489-0.43008 0.66673778-0.84878222 1.35850667-1.22197333 2.05824-66.06051555 122.02097778-239.65354667 250.77077333-293.36120889 288.7111111-53.7088-37.94033778-227.27793778-166.69127111-293.36120889-288.7111111-0.38570667-0.70200889-0.79075555-1.39150222-1.22197334-2.05824-15.40664889-23.56224-23.56224-50.86890667-23.56224-78.9458489-0.02161778-79.72522667 64.85105778-144.62179555 144.61155556-144.62179555z"
          fill="#FFFFFF"/>
    <path d="M969.68931555 633.18016c-52.89528889-30.98396445-97.24814222 14.96632889-113.95640888 32.25031111-35.21308445 36.48056889-77.63399111 72.54243555-99.10385778 90.25763556-9.11815111-4.08234667-19.17269333-6.40341333-29.76199111-6.50353777-65.41539555-3.51800889-168.51285333-15.31562667-194.31424-30.65514667-27.72650667-16.48184889-49.93024-32.57912889-69.51139556-46.76380445-56.27562667-40.79047111-100.70812445-72.98503111-211.37294222-72.98503111-32.08078222 0-60.20209778 8.89059555-87.40636445 17.5104-27.91879111 8.84622222-54.29703111 17.20547555-86.1184 17.20547556-35.10158222 0-63.62908445 28.52750222-63.62908444 63.62908444v161.94104889c0 35.10158222 28.52750222 63.62908445 63.62908444 63.62908444 60.49564445 0 155.07342222 3.11068445 175.94481778 10.07957333 37.61152 12.53262222 125.76654222 64.80554667 156.55480889 83.87925334 0.39594667 0.23665778 0.79075555 0.48583111 1.18670223 0.70200889 11.14225778 6.18837333 23.77841778 9.46858667 36.53745777 9.46858667h294.10759111c31.1296 0 65.73397333-28.79943111 77.73411556-48.71964445 38.56270222-63.98976 176.83911111-238.11527111 178.22947556-239.86744888 1.24359111-1.58378667 2.31765333-3.28021333 3.21194666-5.06766223 17.91772445-35.83431111 4.16312889-78.83207111-31.96700444-99.98449777zM742.46826667 968.96113778h-294.10759112c-2.78186667 0-5.53187555-0.66673778-7.9872-1.92398222-10.87146667-6.73109333-117.88060445-72.44117333-167.9917511-89.13692445-37.26108445-12.42112-168.35470222-13.05372445-194.23687112-13.05372444-3.20170667 0-5.80266667-2.58958222-5.80266666-5.78104889v-161.95128888c0-3.21194667 2.60209778-5.80266667 5.80266666-5.80266667 40.74496 0 74.13646222-10.57792 103.56053334-19.88608 25.13578667-7.95306667 46.83207111-14.81841778 69.96423111-14.81841778 91.89831111 0 124.08945778 23.32444445 177.43872 61.97816888 20.57557333 14.90944 43.91139555 31.80885333 73.86680889 49.64807112 15.04369778 8.94862222 39.96330667 15.97212445 67.90485333 21.43687111 60.05418667 11.74186667 134.02339555 16.26680889 153.60341333 17.30787555 0.49720889 0.03527111 1.00693333 0.03527111 1.52803556 0.03527112 9.55733333 0 17.35338667 7.78353778 17.35338666 17.36362667 0 9.56984889-7.78353778 17.32949333-17.35338666 17.32949333-0.50972445 0-1.00693333 0.03527111-1.52803556 0.05688888l-218.86179555 11.51544889c-17.43303111-0.63488-58.56142222-29.76199111-85.88060445-49.08259555-7.06901333-5.02215111-13.96849778-9.84177778-20.75648-14.52487112-14.78428445-10.22748445-28.90183111-19.41048889-41.82016-25.86965333-14.28707555-7.18392889-31.65070222-1.35850667-38.78912 12.9285689s-1.35850667 31.66208 12.92856889 38.81187555c14.89692445 7.43196445 34.38819555 21.24458667 55.03203556 35.85934222 43.38005333 30.72227555 84.37532445 59.74926222 119.87171555 59.74926223 0.50972445 0 1.02968889-0.02161778 1.52803556-0.03527112l219.14510222-11.54958222c41.07264-0.45283555 74.35264-34.02638222 74.35264-75.17980445 0-9.30816-1.68618667-18.22264889-4.80824889-26.48064 23.20042667-19.21934222 64.98759111-55.04341333 100.94705778-92.25898666 24.63630222-25.51921778 34.46670222-27.60021333 43.12177778-22.53255112 7.66862222 4.50104889 13.29265778 13.29265778 10.32760889 22.10247112-19.21934222 24.26424889-142.05383111 179.84739555-180.12956445 243.04526222-5.07904 8.37063111-22.04558222 20.04423111-28.22257777 20.69959111z"
          fill="#FFFFFF"/>
</svg>